# xmcd CD database file
#
# Track frame offsets:
#	150
#	37488
#	74887
#	128511
#	173620
#	213412
#	252096
#
# Disc length: 3976 seconds
#
# Revision: 0
# Processed by: cddbd v1.4PL0 Copyright (c) Steve Scherf et al.
# Submitted via: CDex 1.50Beta5
#
DISCID=680f8607
DTITLE=New Tone - Downtown
DYEAR=2002
DGENRE=Jazz
TTITLE0=Down Town
TTITLE1=Giant Steps
TTITLE2=When You Will Open This Door
TTITLE3=Lady Be Good
TTITLE4=Aspiration
TTITLE5=In The Moonlight
TTITLE6=Love For Sale
EXTD=YEAR: 2002
EXTT0=
EXTT1=
EXTT2=
EXTT3=
EXTT4=
EXTT5=
EXTT6=
PLAYORDER=
